<svg width="80" height="20" viewBox="0 0 80 20" fill="none" xmlns="http://www.w3.org/2000/svg">
<g clip-path="url(#clip0_2098_261)">
<mask id="mask0_2098_261" style="mask-type:luminance" maskUnits="userSpaceOnUse" x="0" y="0" width="80" height="20">
<path d="M77 0H3C1.34315 0 0 1.34315 0 3V17C0 18.6569 1.34315 20 3 20H77C78.6569 20 80 18.6569 80 17V3C80 1.34315 78.6569 0 77 0Z" fill="white"/>
</mask>
<g mask="url(#mask0_2098_261)">
<path d="M35 0H0V20H35V0Z" fill="#555555"/>
<path d="M80 0H35V20H80V0Z" fill="#CB3837"/>
<path d="M80 0H0V20H80V0Z" fill="url(#paint0_linear_2098_261)"/>
</g>
<path d="M46.4307 8.00049L44.0029 14H42.9878L40.5762 8.00049H41.6719L43.5303 12.7754L45.3726 8.00049H46.4307ZM52.5806 14H48.2515V13.1836H49.9165V7.82324H48.2515V7.09277C48.4771 7.09277 48.7188 7.07487 48.9766 7.03906C49.2344 6.99967 49.4295 6.94417 49.562 6.87256C49.7267 6.78304 49.8556 6.67025 49.9487 6.53418C50.0454 6.39453 50.1009 6.20833 50.1152 5.97559H50.9478V13.1836H52.5806V14ZM56.394 14H55.1104V12.4692H56.394V14ZM64.0264 9.99854C64.0264 11.4344 63.8008 12.4889 63.3496 13.1621C62.902 13.8317 62.2056 14.1665 61.2603 14.1665C60.3006 14.1665 59.5988 13.8263 59.1548 13.146C58.7144 12.4657 58.4941 11.4201 58.4941 10.0093C58.4941 8.58773 58.7179 7.53857 59.1655 6.86182C59.6131 6.18148 60.3114 5.84131 61.2603 5.84131C62.2199 5.84131 62.9199 6.18685 63.3604 6.87793C63.8044 7.56543 64.0264 8.60563 64.0264 9.99854ZM62.6138 12.437C62.7391 12.147 62.8232 11.8068 62.8662 11.4165C62.9128 11.0226 62.936 10.55 62.936 9.99854C62.936 9.45426 62.9128 8.98161 62.8662 8.58057C62.8232 8.17952 62.7373 7.83936 62.6084 7.56006C62.4831 7.28434 62.3112 7.07666 62.0928 6.93701C61.8779 6.79736 61.6004 6.72754 61.2603 6.72754C60.9237 6.72754 60.6444 6.79736 60.4224 6.93701C60.2039 7.07666 60.0303 7.28792 59.9014 7.5708C59.7796 7.83577 59.6955 8.18132 59.6489 8.60742C59.606 9.03353 59.5845 9.50081 59.5845 10.0093C59.5845 10.5679 59.6042 11.0352 59.6436 11.4111C59.6829 11.7871 59.7671 12.1237 59.896 12.4209C60.0142 12.7002 60.1807 12.9132 60.3955 13.0601C60.6139 13.2069 60.9022 13.2803 61.2603 13.2803C61.5968 13.2803 61.8761 13.2104 62.0981 13.0708C62.3201 12.9312 62.492 12.7199 62.6138 12.437ZM67.394 14H66.1104V12.4692H67.394V14ZM75.0264 9.99854C75.0264 11.4344 74.8008 12.4889 74.3496 13.1621C73.902 13.8317 73.2056 14.1665 72.2603 14.1665C71.3006 14.1665 70.5988 13.8263 70.1548 13.146C69.7144 12.4657 69.4941 11.4201 69.4941 10.0093C69.4941 8.58773 69.7179 7.53857 70.1655 6.86182C70.6131 6.18148 71.3114 5.84131 72.2603 5.84131C73.2199 5.84131 73.9199 6.18685 74.3604 6.87793C74.8044 7.56543 75.0264 8.60563 75.0264 9.99854ZM73.6138 12.437C73.7391 12.147 73.8232 11.8068 73.8662 11.4165C73.9128 11.0226 73.936 10.55 73.936 9.99854C73.936 9.45426 73.9128 8.98161 73.8662 8.58057C73.8232 8.17952 73.7373 7.83936 73.6084 7.56006C73.4831 7.28434 73.3112 7.07666 73.0928 6.93701C72.8779 6.79736 72.6004 6.72754 72.2603 6.72754C71.9237 6.72754 71.6444 6.79736 71.4224 6.93701C71.2039 7.07666 71.0303 7.28792 70.9014 7.5708C70.7796 7.83577 70.6955 8.18132 70.6489 8.60742C70.606 9.03353 70.5845 9.50081 70.5845 10.0093C70.5845 10.5679 70.6042 11.0352 70.6436 11.4111C70.6829 11.7871 70.7671 12.1237 70.896 12.4209C71.0142 12.7002 71.1807 12.9132 71.3955 13.0601C71.6139 13.2069 71.9022 13.2803 72.2603 13.2803C72.5968 13.2803 72.8761 13.2104 73.0981 13.0708C73.3201 12.9312 73.492 12.7199 73.6138 12.437Z" fill="white"/>
<path d="M11.2534 14H10.2437V10.584C10.2437 10.3083 10.2275 10.0505 10.1953 9.81055C10.1631 9.56706 10.104 9.37728 10.0181 9.24121C9.92855 9.09082 9.79964 8.97982 9.63135 8.9082C9.46305 8.83301 9.24463 8.79541 8.97607 8.79541C8.70036 8.79541 8.41211 8.86344 8.11133 8.99951C7.81055 9.13558 7.5223 9.30924 7.24658 9.52051V14H6.23682V8.00049H7.24658V8.6665C7.56169 8.40511 7.88753 8.20101 8.22412 8.0542C8.56071 7.90739 8.90625 7.83398 9.26074 7.83398C9.90885 7.83398 10.403 8.02913 10.7432 8.41943C11.0833 8.80973 11.2534 9.37191 11.2534 10.106V14ZM18.4775 10.9277C18.4775 11.4147 18.4077 11.8605 18.2681 12.2651C18.1284 12.6662 17.9315 13.0063 17.6772 13.2856C17.4409 13.5506 17.1616 13.7565 16.8394 13.9033C16.5207 14.0465 16.1823 14.1182 15.8242 14.1182C15.5127 14.1182 15.2298 14.0841 14.9756 14.0161C14.7249 13.9481 14.4689 13.8424 14.2075 13.6992V16.2129H13.1978V8.00049H14.2075V8.62891C14.4761 8.40332 14.7769 8.21533 15.1099 8.06494C15.4465 7.91097 15.8045 7.83398 16.1841 7.83398C16.9074 7.83398 17.4696 8.10791 17.8706 8.65576C18.2752 9.20003 18.4775 9.95736 18.4775 10.9277ZM17.4355 10.9546C17.4355 10.2313 17.312 9.69059 17.0649 9.33252C16.8179 8.97445 16.4383 8.79541 15.9263 8.79541C15.6362 8.79541 15.3444 8.85807 15.0508 8.9834C14.7572 9.10872 14.4761 9.27344 14.2075 9.47754V12.8774C14.494 13.0063 14.7393 13.0941 14.9434 13.1406C15.151 13.1872 15.3856 13.2104 15.647 13.2104C16.2091 13.2104 16.6478 13.0207 16.9629 12.6411C17.278 12.2616 17.4355 11.6994 17.4355 10.9546ZM28.8062 14H27.7964V10.584C27.7964 10.3262 27.7839 10.0773 27.7588 9.8374C27.7373 9.59749 27.689 9.40592 27.6138 9.2627C27.5314 9.10872 27.4132 8.99235 27.2593 8.91357C27.1053 8.8348 26.8833 8.79541 26.5933 8.79541C26.3104 8.79541 26.0275 8.86702 25.7446 9.01025C25.4618 9.1499 25.1789 9.32894 24.896 9.54736C24.9067 9.62972 24.9157 9.7264 24.9229 9.8374C24.93 9.94482 24.9336 10.0522 24.9336 10.1597V14H23.9238V10.584C23.9238 10.319 23.9113 10.0684 23.8862 9.83203C23.8647 9.59212 23.8164 9.40055 23.7412 9.25732C23.6589 9.10335 23.5407 8.98877 23.3867 8.91357C23.2327 8.8348 23.0107 8.79541 22.7207 8.79541C22.445 8.79541 22.1675 8.86344 21.8882 8.99951C21.6125 9.13558 21.3368 9.30924 21.061 9.52051V14H20.0513V8.00049H21.061V8.6665C21.3761 8.40511 21.6895 8.20101 22.001 8.0542C22.3161 7.90739 22.6509 7.83398 23.0054 7.83398C23.4136 7.83398 23.7591 7.91992 24.042 8.0918C24.3285 8.26367 24.5415 8.50179 24.6812 8.80615C25.0894 8.4624 25.4618 8.21533 25.7983 8.06494C26.1349 7.91097 26.4948 7.83398 26.8779 7.83398C27.5368 7.83398 28.022 8.03451 28.3335 8.43555C28.6486 8.83301 28.8062 9.38981 28.8062 10.106V14Z" fill="white"/>
</g>
<defs>
<linearGradient id="paint0_linear_2098_261" x1="0" y1="0" x2="0" y2="400" gradientUnits="userSpaceOnUse">
<stop stop-color="#BBBBBB" stop-opacity="0.1"/>
<stop offset="1" stop-opacity="0.1"/>
</linearGradient>
<clipPath id="clip0_2098_261">
<rect width="80" height="20" fill="white"/>
</clipPath>
</defs>
</svg>
